<svg width="200" height="28" viewBox="0 0 200 28" fill="none" xmlns="http://www.w3.org/2000/svg">
<path fill-rule="evenodd" clip-rule="evenodd" d="M186.776 14.8748C186.167 14.8748 185.674 15.2665 185.674 15.7498V20.9997C185.674 21.483 186.167 21.8747 186.776 21.8747H188.98C189.589 21.8747 190.082 21.483 190.082 20.9997V15.7498C190.082 15.2665 189.589 14.8748 188.98 14.8748H186.776ZM183.47 15.7498C183.47 14.3 184.95 13.1248 186.776 13.1248H188.98C190.806 13.1248 192.286 14.3 192.286 15.7498V20.9997C192.286 22.4495 190.806 23.6247 188.98 23.6247H186.776C184.95 23.6247 183.47 22.4495 183.47 20.9997V15.7498Z" fill="#313131"/>
<path fill-rule="evenodd" clip-rule="evenodd" d="M85.9186 8.74989H94.2065V27.9996H92.0024V12.4007L78.25 27.9996H69.9621V8.74989H72.1661V24.3489L85.9186 8.74989ZM73.1807 26.2497H77.1024L90.9878 10.4999H87.0661L73.1807 26.2497Z" fill="#313131"/>
<path fill-rule="evenodd" clip-rule="evenodd" d="M59.7585 0H67.7582V27.9996H58.942V2.36205L1.07037 27.8895L0 26.3598L59.7585 0ZM61.1461 1.74998V26.2497H65.5541V1.74998H61.1461Z" fill="#313131"/>
<path fill-rule="evenodd" clip-rule="evenodd" d="M60.0439 14.8748H30.2895V13.1248H60.0439V14.8748Z" fill="#313131"/>
<path fill-rule="evenodd" clip-rule="evenodd" d="M138.815 8.74989H147.103V28H144.899V12.4007L131.147 27.9996H122.859V8.74989H125.063V24.3489L138.815 8.74989ZM126.077 26.2497H129.999L143.885 10.4999H139.963L126.077 26.2497Z" fill="#313131"/>
<path fill-rule="evenodd" clip-rule="evenodd" d="M96.4105 8.74989H104.125V17.4998H106.736L119 8.74989H121.704L108.814 18.3748L121.704 27.9996H119L106.736 19.2498H104.125V27.9996H96.4105V8.74989ZM98.6145 10.4999V26.2497H101.921V10.4999H98.6145Z" fill="#313131"/>
<path fill-rule="evenodd" clip-rule="evenodd" d="M183.47 10.4999C180.427 10.4999 177.96 12.4585 177.96 14.8748V21.8747C177.96 24.291 180.427 26.2497 183.47 26.2497H192.286C195.329 26.2497 197.796 24.291 197.796 21.8747V14.8748C197.796 12.4585 195.329 10.4999 192.286 10.4999H183.47ZM175.756 14.8748C175.756 11.492 179.209 8.74989 183.47 8.74989H192.286C196.546 8.74989 200 11.492 200 14.8748V21.8747C200 25.2575 196.546 27.9996 192.286 27.9996H183.47C179.209 27.9996 175.756 25.2575 175.756 21.8747V14.8748Z" fill="#313131"/>
<path fill-rule="evenodd" clip-rule="evenodd" d="M77 8.74989L85.8161 1.74998L87.3746 2.9874L78.5585 9.98731L77 8.74989Z" fill="#313131"/>
<path fill-rule="evenodd" clip-rule="evenodd" d="M152.531 8.74971C151.69 8.74956 151.04 8.74948 150.41 8.74971L149.308 8.75012V28H165.838C170.098 28 173.552 25.2577 173.552 21.8751V14.8752C173.552 11.4924 170.098 8.75024 165.838 8.75024H157.022L152.531 8.74971ZM151.512 10.5002V26.25H155.92V10.5002H151.512ZM158.124 10.5002V26.25H165.838C168.881 26.25 171.348 24.2912 171.348 21.8751V14.8752C171.348 12.4589 168.881 10.5002 165.838 10.5002H158.124Z" fill="#313131"/>
<path d="M61.1461 26.2497V1.74998H65.5541V26.2497H61.1461Z" fill="#313131"/>
<path d="M77.1024 26.2497H73.1807L87.0661 10.4999H90.9878L77.1024 26.2497Z" fill="#313131"/>
<path d="M98.6145 26.2497V10.4999H101.921V26.2497H98.6145Z" fill="#313131"/>
<path d="M129.999 26.2497H126.077L139.963 10.4999H143.885L129.999 26.2497Z" fill="#313131"/>
<path d="M151.512 26.25V10.5002H155.92V26.25H151.512Z" fill="#313131"/>
<path d="M185.674 15.7498C185.674 15.2665 186.167 14.8748 186.776 14.8748H188.98C189.589 14.8748 190.082 15.2665 190.082 15.7498V20.9997C190.082 21.483 189.589 21.8747 188.98 21.8747H186.776C186.167 21.8747 185.674 21.483 185.674 20.9997V15.7498Z" fill="#313131"/>
</svg>
