<svg width="16" height="16" viewBox="0 0 16 16" fill="none" xmlns="http://www.w3.org/2000/svg">
<path d="M10.667 2.66665C11.287 2.66665 11.597 2.66665 11.8513 2.73479C12.5415 2.91973 13.0806 3.45882 13.2655 4.14901C13.3337 4.40334 13.3337 4.71333 13.3337 5.33331V11.4666C13.3337 12.5868 13.3337 13.1468 13.1157 13.5746C12.9239 13.951 12.618 14.2569 12.2416 14.4487C11.8138 14.6666 11.2538 14.6666 10.1337 14.6666H5.86699C4.74689 14.6666 4.18683 14.6666 3.75901 14.4487C3.38269 14.2569 3.07673 13.951 2.88498 13.5746C2.66699 13.1468 2.66699 12.5868 2.66699 11.4666V5.33331C2.66699 4.71333 2.66699 4.40334 2.73514 4.14901C2.92007 3.45882 3.45917 2.91973 4.14935 2.73479C4.40369 2.66665 4.71368 2.66665 5.33366 2.66665M6.40033 3.99998H9.60033C9.97369 3.99998 10.1604 3.99998 10.303 3.92732C10.4284 3.8634 10.5304 3.76141 10.5943 3.63597C10.667 3.49337 10.667 3.30668 10.667 2.93331V2.39998C10.667 2.02661 10.667 1.83993 10.5943 1.69732C10.5304 1.57188 10.4284 1.46989 10.303 1.40598C10.1604 1.33331 9.97369 1.33331 9.60033 1.33331H6.40033C6.02696 1.33331 5.84027 1.33331 5.69767 1.40598C5.57222 1.46989 5.47024 1.57188 5.40632 1.69732C5.33366 1.83993 5.33366 2.02661 5.33366 2.39998V2.93331C5.33366 3.30668 5.33366 3.49337 5.40632 3.63597C5.47024 3.76141 5.57222 3.8634 5.69767 3.92732C5.84027 3.99998 6.02696 3.99998 6.40033 3.99998Z" stroke="#232323" stroke-linecap="round" stroke-linejoin="round"/>
</svg>
